<?xml version="1.0" encoding="UTF-8" standalone="no"?>
<!-- Created with Inkscape (http://www.inkscape.org/) -->

<svg
   xmlns:dc="http://purl.org/dc/elements/1.1/"
   xmlns:cc="http://creativecommons.org/ns#"
   xmlns:rdf="http://www.w3.org/1999/02/22-rdf-syntax-ns#"
   xmlns:svg="http://www.w3.org/2000/svg"
   xmlns="http://www.w3.org/2000/svg"
   xmlns:sodipodi="http://sodipodi.sourceforge.net/DTD/sodipodi-0.dtd"
   xmlns:inkscape="http://www.inkscape.org/namespaces/inkscape"
   width="1363"
   height="1108"
   id="svg2"
   sodipodi:version="0.32"
   inkscape:version="0.92.4 (5da689c313, 2019-01-14)"
   version="1.0"
   sodipodi:docname="fk-logo.svg"
   inkscape:output_extension="org.inkscape.output.svg.inkscape"
   inkscape:export-filename="/home/oyvind/Nextcloud/FK/Kabeltester/Documentation/FKlogo.png"
   inkscape:export-xdpi="48"
   inkscape:export-ydpi="48">
  <defs
     id="defs4">
    <inkscape:perspective
       sodipodi:type="inkscape:persp3d"
       inkscape:vp_x="0 : 526.18109 : 1"
       inkscape:vp_y="0 : 1000 : 0"
       inkscape:vp_z="744.09448 : 526.18109 : 1"
       inkscape:persp3d-origin="372.04724 : 350.78739 : 1"
       id="perspective10" />
    <inkscape:perspective
       id="perspective2467"
       inkscape:persp3d-origin="372.04724 : 350.78739 : 1"
       inkscape:vp_z="744.09448 : 526.18109 : 1"
       inkscape:vp_y="0 : 1000 : 0"
       inkscape:vp_x="0 : 526.18109 : 1"
       sodipodi:type="inkscape:persp3d" />
    <filter
       style="color-interpolation-filters:sRGB;"
       inkscape:label="Invert"
       id="filter817">
      <feColorMatrix
         values="1 0 0 0 0 0 1 0 0 0 0 0 1 0 0 -0.21 -0.72 -0.07 2 0 "
         result="color2"
         id="feColorMatrix815" />
    </filter>
  </defs>
  <sodipodi:namedview
     id="base"
     pagecolor="#ff0000"
     bordercolor="#666666"
     borderopacity="1.0"
     gridtolerance="10000"
     guidetolerance="10"
     objecttolerance="10"
     inkscape:pageopacity="0.99215686"
     inkscape:pageshadow="2"
     inkscape:zoom="0.35124725"
     inkscape:cx="-492.14559"
     inkscape:cy="107.20726"
     inkscape:document-units="px"
     inkscape:current-layer="layer1"
     showgrid="false"
     inkscape:window-width="2506"
     inkscape:window-height="1016"
     inkscape:window-x="54"
     inkscape:window-y="27"
     inkscape:window-maximized="1" />
  <metadata
     id="metadata7">
    <rdf:RDF>
      <cc:Work
         rdf:about="">
        <dc:format>image/svg+xml</dc:format>
        <dc:type
           rdf:resource="http://purl.org/dc/dcmitype/StillImage" />
        <dc:title></dc:title>
      </cc:Work>
    </rdf:RDF>
  </metadata>
  <g
     inkscape:label="Layer 1"
     inkscape:groupmode="layer"
     id="layer1"
     transform="translate(353.57145,68.28067)">
    <path
       style="fill:#ffffff;filter:url(#filter817)"
       d="M -353.57145,485.71932 L -353.57145,-68.28067 L 327.92855,-68.28067 L 1009.4285,-68.28067 L 1009.4285,485.71932 L 1009.4285,1039.7193 L 327.92855,1039.7193 L -353.57145,1039.7193 L -353.57145,485.71932 z M 503.42855,876.83101 L 503.42855,828.9427 C 503.42855,828.9427 467.46015,828.7294 460.41642,828.02818 C 439.15995,825.91206 401.49235,802.71932 399.99235,753.21932 L 400.68204,653.96932 C 400.51137,591.13182 400.67202,539.71932 401.03905,539.71932 C 401.40607,539.71932 406.99072,540.62092 413.44937,541.72287 C 445.50483,547.19207 469.30729,559.0537 483.28482,576.52443 C 490.11734,585.06449 497.46025,599.70028 500.69157,611.21932 C 503.3263,620.61161 504.33944,627.91849 506.93102,656.21932 C 513.87242,732.02137 530.94582,786.17191 561.47709,829.21932 C 593.91273,874.95181 644.74695,905.60419 709.16885,918.27555 C 732.80675,922.92496 744.36065,923.92893 780.00555,924.4308 C 815.42795,924.92951 833.79935,923.87484 864.67855,919.56973 L 872.42855,918.48924 L 872.42855,863.75588 L 872.42855,809.02253 L 848.67855,808.42404 C 824.67225,807.8191 808.95125,806.16561 793.42855,802.61301 C 761.55145,795.31748 735.85205,780.67648 719.95875,760.75713 C 701.06625,737.07893 692.61815,712.56657 681.86235,650.21932 C 674.60125,608.12973 668.92485,584.62922 661.45205,565.71932 C 651.03645,539.36267 632.47714,516.41733 609.19841,501.1168 C 596.54001,492.79675 587.61956,488.68593 575.67855,485.66984 C 570.59105,484.38483 566.42855,483.05709 566.42855,482.71932 C 566.42855,482.38155 570.59105,481.05381 575.67855,479.7688 C 606.65574,471.9445 637.94264,446.09837 654.24365,414.86612 C 666.18055,391.99539 672.40055,369.65937 681.86135,315.69109 C 692.35665,255.82205 701.40275,229.93798 719.95875,206.68151 C 735.85205,186.76216 761.55145,172.12116 793.42855,164.82563 C 808.95125,161.27303 824.67225,159.61954 848.67855,159.0146 L 872.42855,158.41611 L 872.42855,103.68276 L 872.42855,48.9494 L 864.67855,47.86891 C 833.79935,43.5638 815.42795,42.5091 780.00555,43.00784 C 744.36065,43.50971 732.80675,44.51368 709.16885,49.16309 C 686.22185,53.67661 662.05385,61.57054 642.42855,70.96225 C 561.60899,109.63863 518.60706,185.26707 506.95682,309.21932 C 504.25445,337.97114 503.26376,345.09363 500.69765,354.21932 C 497.45583,365.74801 490.1116,380.38132 483.28482,388.91421 C 469.30729,406.38494 445.50483,418.24657 413.44937,423.71577 C 406.99072,424.81772 401.40597,425.71932 401.03881,425.71932 C 400.67166,425.71932 400.51112,374.75682 400.68206,312.46932 L 400.99287,246.94903 L 401.38917,203.88658 C 403.48887,158.58922 441.97457,138.01191 488.06465,138.37493 L 503.42855,138.49594 L 503.42855,90.60763 L 503.42855,42.71932 L 132.42855,42.71932 L -238.57145,42.71932 L -238.57145,206.21932 L -238.57145,369.71932 L -196.07145,369.71932 L -153.57145,369.71932 C -153.57145,369.71932 -154.00131,377.9434 -153.16841,364.90712 C -146.33448,256.94444 -65.111128,173.12593 46.92855,171.73013 C 72.204736,171.41664 92.93117,171.25184 118.17855,170.73496 L 187.42855,170.71932 L 187.42855,298.34091 L 187.42855,425.9625 L 172.17855,425.47452 C 158.40563,425.0338 155.74791,424.63851 144.73911,421.39338 C 122.68974,414.89375 105.30864,404.33375 94.572279,390.91421 C 84.017783,377.72198 75.35748,356.22198 73.85005,339.46932 L 73.15269,331.71932 L 33.29062,331.71932 L -6.57145,331.71932 L -6.57145,482.71932 L -6.57145,633.71932 L 33.29062,633.71932 L 73.15269,633.71932 L 73.85005,625.96932 C 75.35748,609.21666 84.017783,587.71666 94.572279,574.52443 C 105.30864,561.10489 122.68974,550.54489 144.73911,544.04526 C 155.75302,540.79862 158.40198,540.40497 172.20705,539.96335 L 187.48556,539.47461 L 187.17515,653.84696 L 186.86475,753.21932 C 185.86475,805.46932 141.97006,827.04163 124.94068,827.77818 L 84.428553,828.9427 L 84.428553,876.83101 L 84.428553,924.71932 L 293.92855,924.71932 L 503.42855,924.71932 L 503.42855,876.83101 z"
       id="path2473"
       sodipodi:nodetypes="cccccccccccsccsssssssscccccsssssssssssscccccsssssssscccscccccccccsscccccsscccccccccssccccscccccc" />
  </g>
</svg>
